<?xml version="1.0" encoding="UTF-8" standalone="no"?>
<svg
   xmlns:dc="http://purl.org/dc/elements/1.1/"
   xmlns:cc="http://creativecommons.org/ns#"
   xmlns:rdf="http://www.w3.org/1999/02/22-rdf-syntax-ns#"
   xmlns:svg="http://www.w3.org/2000/svg"
   xmlns="http://www.w3.org/2000/svg"
   viewBox="0 0 414.34668 486.77332"
   height="486.77332"
   width="414.34668"
   xml:space="preserve"
   id="svg2"
   version="1.1"><metadata
     id="metadata8"><rdf:RDF><cc:Work
         rdf:about=""><dc:format>image/svg+xml</dc:format><dc:type
           rdf:resource="http://purl.org/dc/dcmitype/StillImage" /></cc:Work></rdf:RDF></metadata><defs
     id="defs6" /><g
     transform="matrix(1.3333333,0,0,-1.3333333,0,486.77333)"
     id="g10"><g
       transform="scale(0.1)"
       id="g12"><path
         id="path14"
         style="fill:#fabc32;fill-opacity:1;fill-rule:nonzero;stroke:none"
         d="m 0.996094,704.25 22.000006,31 1045.0039,1983 2,21 -461,866 c -39,73 -147.004,54 -160,-27 L 0.996094,704.25" /><path
         id="path16"
         style="fill:#f1b749;fill-opacity:1;fill-rule:nonzero;stroke:none"
         d="m 1406,2084.25 342.99,351 -342.99,655 c -33,62 -124,62 -156,0 l -183,-350 v -30 l 339,-626" /><path
         id="path18"
         style="fill:#f47216;fill-opacity:1;fill-rule:nonzero;stroke:none"
         d="m 0.996094,704.25 10.000006,10 36,15 1338.0039,1332 16,45.99 -333,636.01 L 0.996094,704.25" /><path
         id="path20"
         style="fill:#f9e149;fill-opacity:1;fill-rule:nonzero;stroke:none"
         d="m 1449,32.25 1209.99,675 -345.99,2129 c -11,67 -93,93 -140,45 L 0.996094,704.25 1205,32.25 c 75,-43 168,-43 244,0" /><path
         id="path22"
         style="fill:#f9c727;fill-opacity:1;fill-rule:nonzero;stroke:none"
         d="m 2648.99,713.25 -342.99,2112 c -11,66 -79,93 -126,46 L 14,708.25 1204,43.25 c 75,-42.01172 167,-42.01172 243,0 l 1201.99,670" /><path
         id="path24"
         style="fill:#eca424;fill-opacity:1;fill-rule:nonzero;stroke:none"
         d="m 1449,52.25 c -76,-42 -169,-42 -245,0 l -1194,662 -10,-10 1204,-672 c 76,-42 169,-42 245,0 l 1209.99,675 -2.99,18 -1207,-673" /><path
         id="path26"
         style="fill:#6e6f71;fill-opacity:1;fill-rule:evenodd;stroke:none"
         d="m 2320.61,1636.48 c 434.66,0 787.03,-352.37 787.03,-787.039 0,-434.671 -352.37,-787.0426 -787.03,-787.0426 -434.68,0 -787.05,352.3716 -787.05,787.0426 0,434.669 352.37,787.039 787.05,787.039" /><path
         id="path28"
         style="fill:#ffffff;fill-opacity:1;fill-rule:evenodd;stroke:none"
         d="m 1965.28,1063.05 350.02,177.35 359.48,-177.35 V 883.309 L 2315.3,1061.32 1965.28,883.309 v 179.741" /><path
         id="path30"
         style="fill:#ffffff;fill-opacity:1;fill-rule:evenodd;stroke:none"
         d="M 1965.28,756.871 2315.3,934.219 2674.78,756.871 V 577.129 l -359.48,178 -350.02,-178 v 179.742" /><path
         id="path32"
         style="fill:#ffffff;fill-opacity:1;fill-rule:evenodd;stroke:none"
         d="m 2316.08,581.289 102.09,47.602 179.76,-82.68 -281.85,-135.281 v 170.359" /></g></g></svg>