<?xml version="1.0" encoding="UTF-8" standalone="no"?>
<svg
   xmlns:dc="http://purl.org/dc/elements/1.1/"
   xmlns:cc="http://creativecommons.org/ns#"
   xmlns:rdf="http://www.w3.org/1999/02/22-rdf-syntax-ns#"
   xmlns:svg="http://www.w3.org/2000/svg"
   xmlns="http://www.w3.org/2000/svg"
   viewBox="0 0 640.32001 173.16"
   height="173.16"
   width="640.32001"
   xml:space="preserve"
   id="svg2"
   version="1.1"><metadata
     id="metadata8"><rdf:RDF><cc:Work
         rdf:about=""><dc:format>image/svg+xml</dc:format><dc:type
           rdf:resource="http://purl.org/dc/dcmitype/StillImage" /></cc:Work></rdf:RDF></metadata><defs
     id="defs6" /><g
     transform="matrix(1.3333333,0,0,-1.3333333,0,173.16)"
     id="g10"><g
       transform="scale(0.1)"
       id="g12"><path
         id="path14"
         style="fill:#161312;fill-opacity:1;fill-rule:nonzero;stroke:none"
         d="M 924.973,742.867 H 521.406 c -10.41,0 -18.855,-8.453 -18.855,-18.867 V 526.695 c 0,-10.41 8.445,-18.886 18.855,-18.886 H 678.84 V 262.672 c 0,0 -35.352,-12.051 -133.078,-12.051 -115.301,0 -276.367,42.129 -276.367,396.313 0,354.256 167.714,400.866 325.175,400.866 136.297,0 195.02,-24 232.383,-35.57 11.738,-3.59 22.598,8.1 22.598,18.52 l 45.019,190.64 c 0,4.88 -1.648,10.74 -7.207,14.73 -15.175,10.82 -107.746,62.62 -341.601,62.62 C 276.348,1298.74 0,1184.12 0,633.121 0,82.1016 316.398,0 583.02,0 c 220.761,0 354.683,94.3281 354.683,94.3281 5.52,3.0508 6.117,10.7619 6.117,14.3009 V 724 c 0,10.414 -8.437,18.867 -18.847,18.867" /><path
         id="path16"
         style="fill:#161312;fill-opacity:1;fill-rule:nonzero;stroke:none"
         d="m 3004.75,1232.72 c 0,10.5 -8.32,18.97 -18.73,18.97 h -227.23 c -10.38,0 -18.82,-8.47 -18.82,-18.97 0,-0.05 0.06,-439.126 0.06,-439.126 h -354.19 v 439.126 c 0,10.5 -8.36,18.97 -18.75,18.97 h -227.22 c -10.34,0 -18.77,-8.47 -18.77,-18.97 V 43.6914 c 0,-10.4922 8.43,-19.0312 18.77,-19.0312 h 227.22 c 10.39,0 18.75,8.539 18.75,19.0312 V 552.281 h 354.19 c 0,0 -0.62,-508.5622 -0.62,-508.5896 0,-10.4922 8.43,-19.0312 18.82,-19.0312 H 2986 c 10.41,0 18.73,8.539 18.75,19.0312 V 1232.72" /><path
         id="path18"
         style="fill:#161312;fill-opacity:1;fill-rule:nonzero;stroke:none"
         d="m 1353.76,1076.7 c 0,81.81 -65.6,147.93 -146.53,147.93 -80.85,0 -146.5,-66.12 -146.5,-147.93 0,-81.743 65.65,-148.044 146.5,-148.044 80.93,0 146.53,66.301 146.53,148.044" /><path
         id="path20"
         style="fill:#161312;fill-opacity:1;fill-rule:nonzero;stroke:none"
         d="m 1337.51,294.512 c 0,30.465 0,548.855 0,548.855 0,10.422 -8.41,18.942 -18.8,18.942 H 1092.2 c -10.39,0 -19.69,-10.715 -19.69,-21.137 0,0 0,-660.453 0,-786.3517 0,-23.1094 14.4,-29.9805 33.04,-29.9805 0,0 96.68,0 204.08,0 22.39,0 27.88,11 27.88,30.3516 0,42.1484 0,207.2696 0,239.3206" /><path
         id="path22"
         style="fill:#161312;fill-opacity:1;fill-rule:nonzero;stroke:none"
         d="m 3868.32,860.523 h -225.49 c -10.34,0 -18.76,-8.527 -18.76,-19.015 v -583.02 c 0,0 -57.28,-41.91 -138.59,-41.91 -81.3,0 -102.88,36.891 -102.88,116.504 0,79.707 0,508.426 0,508.426 0,10.488 -8.4,19.015 -18.75,19.015 H 3135 c -10.33,0 -18.79,-8.527 -18.79,-19.015 0,0 0,-310.477 0,-546.918 0,-236.4689 131.79,-294.320469 313.09,-294.320469 148.73,0 268.65,82.171869 268.65,82.171869 0,0 5.71,-43.3008 8.29,-48.4414 2.59,-5.1211 9.32,-10.2891 16.59,-10.2891 l 145.59,0.6407 c 10.33,0 18.79,8.539 18.79,18.9882 l -0.07,798.1682 c 0,10.488 -8.43,19.015 -18.82,19.015" /><path
         id="path24"
         style="fill:#161312;fill-opacity:1;fill-rule:nonzero;stroke:none"
         d="m 4395.67,217.301 c -78.21,2.379 -131.26,37.871 -131.26,37.871 v 376.543 c 0,0 52.34,32.074 116.55,37.812 81.2,7.27 159.44,-17.257 159.44,-210.957 0,-204.261 -35.31,-244.57 -144.73,-241.269 z m 88.94,669.929 c -128.07,0 -215.18,-57.136 -215.18,-57.136 v 402.626 c 0,10.5 -8.39,18.97 -18.75,18.97 h -227.87 c -10.36,0 -18.78,-8.47 -18.78,-18.97 V 43.6914 c 0,-10.4922 8.42,-19.0312 18.81,-19.0312 0.02,0 158.05,0 158.1,0 7.12,0 12.51,3.6796 16.49,10.1015 3.93,6.3867 9.6,54.8281 9.6,54.8281 0,0 93.17,-88.30855 269.57,-88.30855 207.08,0 325.84,105.03875 325.84,471.54675 0,366.508 -189.67,414.402 -317.83,414.402" /><path
         id="path26"
         style="fill:#161312;fill-opacity:1;fill-rule:nonzero;stroke:none"
         d="m 1990.58,862.418 h -170.45 c 0,0 -0.26,225.132 -0.26,225.182 0,8.53 -4.39,12.78 -14.24,12.78 h -232.28 c -9.03,0 -13.88,-3.97 -13.88,-12.65 V 855.035 c 0,0 -116.4,-28.101 -124.27,-30.371 -7.84,-2.277 -13.61,-9.504 -13.61,-18.125 V 660.313 c 0,-10.516 8.4,-19 18.79,-19 h 119.09 c 0,0 0,-152.938 0,-351.782 0,-261.2927 183.28,-286.96069 306.96,-286.96069 56.51,0 124.11,18.14849 135.27,22.26949 6.75,2.4805 10.67,9.4688 10.67,17.0508 l 0.19,160.8594 c 0,10.488 -8.86,18.98 -18.84,18.98 -9.93,0 -35.34,-4.039 -61.5,-4.039 -83.72,0 -112.09,38.93 -112.09,89.317 0,50.351 -0.01,334.305 -0.01,334.305 h 170.46 c 10.39,0 18.8,8.484 18.8,19 v 183.16 c 0,10.492 -8.41,18.945 -18.8,18.945" /></g></g></svg>