<?xml version="1.0" encoding="UTF-8" standalone="no"?>
<svg
   xmlns:dc="http://purl.org/dc/elements/1.1/"
   xmlns:cc="http://creativecommons.org/ns#"
   xmlns:rdf="http://www.w3.org/1999/02/22-rdf-syntax-ns#"
   xmlns:svg="http://www.w3.org/2000/svg"
   xmlns="http://www.w3.org/2000/svg"
   viewBox="0 0 633.78668 116.72"
   height="116.72"
   width="633.78668"
   xml:space="preserve"
   id="svg2"
   version="1.1"><metadata
     id="metadata8"><rdf:RDF><cc:Work
         rdf:about=""><dc:format>image/svg+xml</dc:format><dc:type
           rdf:resource="http://purl.org/dc/dcmitype/StillImage" /></cc:Work></rdf:RDF></metadata><defs
     id="defs6" /><g
     transform="matrix(1.3333333,0,0,-1.3333333,0,116.72)"
     id="g10"><g
       transform="scale(0.1)"
       id="g12"><path
         id="path14"
         style="fill:#4072c1;fill-opacity:1;fill-rule:nonzero;stroke:none"
         d="m 400,806.699 c 157.5,24.102 315.301,46.801 473.102,68.699 0.097,-138.296 0,-276.5 0.097,-414.796 -157.699,-0.602 -315.398,-3 -473.199,-3.5 -0.102,116.597 -0.102,233.097 0,349.597 v 0" /><path
         id="path16"
         style="fill:#4072c1;fill-opacity:1;fill-rule:nonzero;stroke:none"
         d="m 0,750.898 c 118.602,18.301 237.699,34.102 356.801,49 0.097,-114.699 0.097,-229.296 0.199,-344 C 238,456 119,454.199 0,454.5 v 296.398 0" /><path
         id="path18"
         style="fill:#4072c1;fill-opacity:1;fill-rule:nonzero;stroke:none"
         d="m 1884.2,731.602 c 31.2,19.898 71.1,-21.602 52.9,-52.801 -8.8,-22.903 -41,-31.602 -59.2,-14.801 -22.8,15.5 -19.6,56.699 6.3,67.602 v 0" /><path
         id="path20"
         style="fill:#4072c1;fill-opacity:1;fill-rule:nonzero;stroke:none"
         d="m 2572.1,514.301 c -48,-7.602 -80.5,-51.403 -89.5,-96.699 -11.8,-54.602 -9.7,-117.801 24.7,-164.204 37.2,-49.398 119.3,-50.5 159.1,-3.796 27.1,28.199 34.8,68.597 35,106.398 0.3,39.898 3.7,84.898 -22.8,118.199 -23.4,33.301 -67.1,48.301 -106.5,40.102 z m 129.2,221.398 c 20,0.102 40,0.102 60,0.102 0,-186.699 0,-373.301 0,-560 -20,0 -39.9,0 -59.8,0 0.1,20.301 -0.3,40.597 -1.7,60.898 -43.3,-77.801 -159.1,-95 -225.3,-37.301 -47.3,40.704 -61.7,106.903 -59.2,166.801 0.5,60.801 20.5,125.403 68.9,165.102 62.9,51.801 174.4,48.801 217.5,-27.301 -0.8,77.301 -0.1,154.5 -0.4,231.699" /><path
         id="path22"
         style="fill:#4072c1;fill-opacity:1;fill-rule:nonzero;stroke:none"
         d="m 4322.66,714.301 c 5.3,0.699 15.9,2.199 21.1,2.898 0.3,-180.398 0.1,-360.898 0.1,-541.398 -19.8,0 -39.5,0 -59.2,0 0.4,150.199 -1,300.5 0.7,450.699 -37.7,-26.102 -78.4,-48.398 -122.7,-60.801 0.3,20 0.5,40 0.7,60 58,19.699 110.8,51.5 159.3,88.602" /><path
         id="path24"
         style="fill:#4072c1;fill-opacity:1;fill-rule:nonzero;stroke:none"
         d="m 4553.36,660.801 c -53.3,-21.602 -68.6,-84.602 -76,-135.801 -7.8,-71.398 -9.6,-145 7.4,-215.301 8.5,-34.597 26.4,-71.301 60.7,-86.5 38.9,-19.597 90.9,-2.699 111.4,35.699 32.7,56.5 33.5,124.301 33.9,187.801 -1.3,61.903 -3.8,128.5 -38,182.301 -20.3,32.801 -64,46 -99.4,31.801 z m 9.2,53.699 c 52,8.699 109.7,-10.301 140.6,-54.5 43.9,-62 48,-141.5 50.2,-214.801 -1.5,-77.398 -10,-161.301 -59.4,-224.398 -45.5,-59.699 -138.7,-73.699 -199.7,-29.801 -49.5,35.699 -68.9,98 -77.7,155.699 -10,85.699 -9.1,175.602 20.7,257.403 18.8,55.5 65.2,103.296 125.3,110.398" /><path
         id="path26"
         style="fill:#4072c1;fill-opacity:1;fill-rule:nonzero;stroke:none"
         d="m 1139.5,705.898 c 22.5,-0.097 45,-0.097 67.6,-0.398 35.1,-126.801 69.7,-253.801 104.9,-380.699 7.5,-26.602 13.1,-53.801 16.4,-81.403 36.6,155.704 86.6,308.102 128.6,462.5 19.5,-0.097 39,-0.097 58.5,-0.199 30.9,-109.898 59.8,-220.301 90.4,-330.301 11.3,-43.796 25.9,-87 30.5,-132.296 33.1,155.5 80.3,307.898 117.8,462.398 22.2,0.301 44.4,0.301 66.6,0.301 -48.4,-176.903 -98.8,-353.301 -147.8,-530 -24,0 -48.1,0 -72.1,0 -35.5,126.898 -70.7,253.898 -106.6,380.597 -6,20.5 -8.5,41.704 -10.4,62.903 C 1481.1,601 1478.5,582.5 1473.8,564.602 1437.5,435.398 1400.7,306.398 1365.4,177 c -24,-1.301 -48,-1.398 -72,-1.199 -51.5,176.597 -102.6,353.398 -153.9,530.097 v 0 0" /><path
         id="path28"
         style="fill:#4072c1;fill-opacity:1;fill-rule:nonzero;stroke:none"
         d="m 2090.6,494.602 c 34.3,61.097 114.3,89.199 178.8,60.898 51.3,-20 70.4,-79.398 72,-130 2.8,-83.199 0.5,-166.5 1.2,-249.699 -20,0 -40,0 -60,0.097 -0.9,79.903 2.1,160 -1.4,239.903 -1.6,39.597 -18.4,87.199 -61.5,97.301 -62.9,19 -125.7,-37.704 -127.7,-99.903 -1.8,-79.097 -0.1,-158.301 -0.7,-237.398 -20,0 -40,0 -60,0 0.1,126.699 0.1,253.301 0,380 20,0 40.1,0 60.1,0 -0.1,-20.403 -0.2,-40.801 -0.8,-61.199 v 0" /><path
         id="path30"
         style="fill:#4072c1;fill-opacity:1;fill-rule:nonzero;stroke:none"
         d="m 2983.9,510.801 c -88.1,-27.102 -103,-142.199 -75.5,-217.903 21.9,-67.199 107.3,-97 168.6,-65.597 41.5,19.097 60.4,65.898 64.4,108.801 4.5,50.097 0.5,106.898 -34.9,146 -30,33.796 -80.8,41.097 -122.6,28.699 z m 10.8,54.398 c 53.5,4.699 112.8,-3.699 153,-42.398 45.4,-41.903 58.9,-107 56.4,-166.5 -0.7,-53.5 -20.5,-107.801 -59.7,-145.102 -81.8,-74.398 -233.7,-58.097 -285.6,44.199 -40.8,85.704 -32.6,204.301 41.9,269.403 26.7,22.597 60.5,32.898 94,40.398" /><path
         id="path32"
         style="fill:#4072c1;fill-opacity:1;fill-rule:nonzero;stroke:none"
         d="m 3904.6,565.398 c 37.5,2.602 75.7,-1 111,-14.796 9.8,-18.602 2.2,-43 4.5,-63.903 C 3978,513 3920,529.801 3874.3,503 c -31.3,-17 -32.8,-67.301 -2.3,-86 43.7,-28.301 99.2,-35.699 138,-72.102 42.8,-41.199 32.4,-120.398 -17.7,-151.296 -60.9,-38.801 -141.1,-35 -204.9,-5.403 0,22.403 -0.1,44.801 -0.5,67.199 45.4,-34.597 109.2,-53.796 163.5,-29.199 31.7,15.903 33.3,64.602 5.4,85.102 -43.7,32.199 -103.6,37.301 -142.4,77.5 -38.3,38.597 -31.4,109.597 11.3,142.301 22.1,20.296 52,26.398 79.9,34.296" /><path
         id="path34"
         style="fill:#4072c1;fill-opacity:1;fill-rule:nonzero;stroke:none"
         d="m 1871.3,555.699 c 20,0.102 40,0.102 60,0.102 0,-126.699 0,-253.301 0,-380 -20,0 -40,0 -60,0 0,126.699 0.1,253.301 0,379.898" /><path
         id="path36"
         style="fill:#4072c1;fill-opacity:1;fill-rule:nonzero;stroke:none"
         d="m 3229.1,555.801 c 20.8,0 41.7,0 62.6,0 24.8,-90.5 48.8,-181.199 74.1,-271.602 5.1,-17 7,-34.597 8.8,-52.199 28.3,109 64.1,216 96.2,323.898 18.2,-0.097 36.4,-0.199 54.7,-0.296 27.5,-108 61.7,-214.403 84.5,-323.5 23.5,108.5 56.9,214.597 83,322.5 20.1,1 40.2,1.296 60.4,1.5 -38.1,-126.704 -74.6,-253.801 -112.9,-380.301 -20.8,0 -41.5,0 -62.2,0 -27,103 -62,204 -83.9,308.097 -26.1,-104 -62.3,-205.199 -92.1,-308.097 -20.1,0 -40.1,0 -60.1,0 -37.6,126.699 -76,253.097 -113.1,380 v 0" /><path
         id="path38"
         style="fill:#4072c1;fill-opacity:1;fill-rule:nonzero;stroke:none"
         d="m 0,418.398 c 118.898,0.403 237.801,-1.5 356.699,-1.296 0,-115 0.301,-230 0.102,-345.0004 C 238,89.6992 119,105.102 0,121.199 v 297.199" /><path
         id="path40"
         style="fill:#4072c1;fill-opacity:1;fill-rule:nonzero;stroke:none"
         d="m 399.301,413.801 c 158,0 315.898,0 473.801,0 0.199,-137.903 0,-275.801 0,-413.801 C 715.602,23.6016 557.801,45.5 400,66.8984 399.801,182.5 399.5,298.102 399.301,413.801" /></g></g></svg>